<svg id="Layer_1" data-name="Layer 1" xmlns="http://www.w3.org/2000/svg" viewBox="0 0 96 21"><defs><style>.cls-1{fill:#f9bec8;}</style></defs><title>logo 2</title><path class="cls-1" d="M11.64,12.75,13.29,12a2.28,2.28,0,0,0,.86,1.3,2.68,2.68,0,0,0,1.6.45,2.06,2.06,0,0,0,1.47-.52,1.8,1.8,0,0,0,.54-1.37c0-.75-.62-1.42-1.86-2l-.4-.19A9.07,9.07,0,0,1,12.7,7.8a3,3,0,0,1-.7-2,3.25,3.25,0,0,1,1.05-2.52,3.93,3.93,0,0,1,2.77-1,4.71,4.71,0,0,1,2.36.54,2.89,2.89,0,0,1,1.31,1.57l-1.62.83A2.72,2.72,0,0,0,17,4.34a2.06,2.06,0,0,0-1-.28,1.94,1.94,0,0,0-1.33.44,1.47,1.47,0,0,0-.49,1.16c0,.77.72,1.48,2.16,2.14l.26.13a7.56,7.56,0,0,1,2.59,1.7,3.07,3.07,0,0,1,.7,2.07,3.73,3.73,0,0,1-1.14,2.87,4.31,4.31,0,0,1-3.07,1.07A4.44,4.44,0,0,1,13,14.89,3.49,3.49,0,0,1,11.64,12.75Z"/><path class="cls-1" d="M22,15.3V1.82h1.77V8.4a3.63,3.63,0,0,1,1.33-1.24A4.06,4.06,0,0,1,27,6.77a3.86,3.86,0,0,1,1.57.29,2.23,2.23,0,0,1,1,.87,2.33,2.33,0,0,1,.31.79A9.06,9.06,0,0,1,30,10.3v5H28V11.07a4.07,4.07,0,0,0-.39-2.17,1.68,1.68,0,0,0-1.41-.53,2.8,2.8,0,0,0-1.18.24,2,2,0,0,0-.81.69,1.8,1.8,0,0,0-.29.76,8.87,8.87,0,0,0-.08,1.48V15.3Z"/><path class="cls-1" d="M31.85,11.19a4.28,4.28,0,0,1,1.33-3.14,4.44,4.44,0,0,1,1.46-1,4.63,4.63,0,0,1,1.73-.33,4.71,4.71,0,0,1,1.76.33,4.58,4.58,0,0,1,2.46,2.41,4.17,4.17,0,0,1,.34,1.68,4.25,4.25,0,0,1-.34,1.71,4.13,4.13,0,0,1-1,1.42,4.84,4.84,0,0,1-1.51,1,4.57,4.57,0,0,1-3.46,0,4.33,4.33,0,0,1-1.47-1,4.52,4.52,0,0,1-1-1.44A4.23,4.23,0,0,1,31.85,11.19Zm7.09,0a2.76,2.76,0,0,0-.74-1.94,2.45,2.45,0,0,0-3.62,0,2.76,2.76,0,0,0-.74,1.94,2.77,2.77,0,0,0,.74,2,2.39,2.39,0,0,0,1.81.79,2.35,2.35,0,0,0,1.8-.79A2.73,2.73,0,0,0,38.94,11.2Z"/><path class="cls-1" d="M44.82,8.37a2.64,2.64,0,0,1,.8-1.21,2,2,0,0,1,1.24-.39,3.48,3.48,0,0,1,.79.09,4.35,4.35,0,0,1,.76.28l-.68,1.6a1.72,1.72,0,0,0-.53-.25,2,2,0,0,0-.63-.09,1.42,1.42,0,0,0-1.34.76,5.52,5.52,0,0,0-.41,2.52V15.3H42.93V7h1.89Z"/><path class="cls-1" d="M49.49,15.3V7.06h1.77V8.4a3.63,3.63,0,0,1,1.33-1.24,4.06,4.06,0,0,1,1.86-.39A3.86,3.86,0,0,1,56,7.06a2.23,2.23,0,0,1,1,.87,2.33,2.33,0,0,1,.31.79,9.35,9.35,0,0,1,.09,1.58v5h-1.9V11.07a4,4,0,0,0-.4-2.17,1.65,1.65,0,0,0-1.4-.53,2.8,2.8,0,0,0-1.18.24,2,2,0,0,0-.81.69,1.8,1.8,0,0,0-.29.76,8.61,8.61,0,0,0-.09,1.48V15.3Z"/><path class="cls-1" d="M67.72,15.3H65.83V14.23a3.28,3.28,0,0,1-1.18,1.06,3.33,3.33,0,0,1-1.54.35,3.41,3.41,0,0,1-2.76-1.2,4.9,4.9,0,0,1-1-3.27,4.74,4.74,0,0,1,1-3.19,3.31,3.31,0,0,1,2.67-1.21,3.36,3.36,0,0,1,1.73.42,2.49,2.49,0,0,1,1,1.21V7.06h1.89Zm-1.84-4.15a3.07,3.07,0,0,0-.59-2,2.31,2.31,0,0,0-3.35,0,3.09,3.09,0,0,0-.62,2,3.07,3.07,0,0,0,.6,2,2.23,2.23,0,0,0,3.32-.06A3.09,3.09,0,0,0,65.88,11.15Z"/><path class="cls-1" d="M70.41,15.3V1.82H72.3V15.3Z"/><path class="cls-1" d="M76.41,19.18H74.47l2.26-4.59-3-7.53h2.08l1.52,4.27c.09.26.16.52.23.79a7.91,7.91,0,0,1,.16.82,11.3,11.3,0,0,1,.54-1.38l0-.1,2-4.4h2Z"/><path class="cls-1" d="M82.08,14.33a1.12,1.12,0,0,1,.33-.81,1.13,1.13,0,0,1,1.62,0,1.12,1.12,0,0,1,.33.81,1.08,1.08,0,0,1-.33.8,1.16,1.16,0,0,1-1.62,0A1.08,1.08,0,0,1,82.08,14.33Z"/></svg>